<?xml version="1.0"?>
<svg xmlns="http://www.w3.org/2000/svg" xmlns:xlink="http://www.w3.org/1999/xlink" xmlns:svgjs="http://svgjs.com/svgjs" version="1.1" width="512" height="512" x="0" y="0" viewBox="0 0 512 512" style="enable-background:new 0 0 512 512" xml:space="preserve" class=""><g><g xmlns="http://www.w3.org/2000/svg" fill-rule="evenodd"><path d="m502 64.878906h-30.523438v-24.820312c0-2.191406-.71875-4.324219-2.050781-6.066406-15.761719-20.648438-59.210937-33.992188-110.6875-33.992188-44.472656 0-82.9375 9.953125-102.761719 25.964844-19.824218-16.011719-58.269531-25.964844-102.714843-25.964844-51.476563 0-94.925781 13.34375-110.6875 33.992188-1.332031 1.742187-2.050781 3.875-2.050781 6.070312v24.816406h-30.523438c-5.523438 0-10 4.476563-10 10v259.128906c0 2.652344 1.054688 5.195313 2.929688 7.070313s4.417968 2.929687 7.070312 2.929687l166.730469-.003906c19.164062 17.847656 43.335937 28.558594 69.269531 30.75v76.097656c0 5.523438 4.476562 10 10 10s10-4.476562 10-10v-76.097656c25.933594-2.191406 50.105469-12.902344 69.269531-30.75l166.730469.003906c2.652344 0 5.195312-1.054687 7.070312-2.929687s2.929688-4.417969 2.929688-7.070313v-259.128906c0-5.523437-4.476562-10-10-10zm-482 20h20.523438v40.75c0 5.523438 4.476562 10 10 10 5.519531 0 10-4.476562 10-10v-81.828125c12.179687-12.183593 46.535156-23.800781 92.738281-23.800781 46.140625 0 80.46875 11.589844 92.6875 23.753906l.046875 99.003906c-3.671875.316407-7.34375.792969-11.003906 1.457032-23.304688 4.253906-44.511719 15.390625-61.320313 32.199218-20.816406 20.820313-32.078125 47.621094-33.804687 74.921876-32.496094 1.125-60.519532 7.875-79.34375 18.753906v-64.460938c0-5.523437-4.480469-10-10-10-5.523438 0-10 4.476563-10 10v85.570313c0 4.289062 2.734374 8.101562 6.796874 9.472656 1.050782.355469 2.132813.527344 3.199219.527344 3.058594 0 6.023438-1.40625 7.949219-3.933594 9.28125-12.15625 37.910156-24.410156 81.839844-25.9375 1.996094 18.527344 8.417968 36.660156 19.265625 52.675781l-139.574219.003906zm236 270.296875c-25.757812 0-49.972656-10.03125-68.1875-28.246093-37.597656-37.597657-37.597656-98.773438 0-136.371094 18.28125-18.285156 42.335938-28.050782 66.960938-28.328125.402343.050781.8125.082031 1.226562.082031h.003906c.199219 0 .390625-.015625.585938-.027344.144531-.007812.292968-.007812.433594-.023437.050781-.003907.097656-.015625.144531-.019531 12.46875.171874 25.042969 2.765624 37.050781 7.941406 5.074219 2.1875 10.953125-.15625 13.140625-5.226563 2.1875-5.070312-.152344-10.953125-5.222656-13.140625-11.570313-4.988281-23.753907-8.019531-36.136719-9.078125v-98.984375c12.226562-12.164062 46.570312-23.753906 92.738281-23.753906 46.199219 0 80.558594 11.621094 92.738281 23.800781v226.289063c-18.8125-10.871094-46.816406-17.621094-79.28125-18.753906-.835937-13.273438-3.933593-26.351563-9.265624-38.726563-2.1875-5.070313-8.070313-7.410156-13.144532-5.222656-5.070312 2.1875-7.410156 8.070312-5.222656 13.140625 5.472656 12.695312 8.070312 26.023437 7.957031 39.191406-.070312.472656-.117187.957031-.117187 1.445312 0 .363282.019531.722657.058594 1.074219-.832032 23.832031-10.554688 46.972657-28.273438 64.695313-18.214844 18.210937-42.429688 28.242187-68.1875 28.242187zm236-31.167969-139.550781-.003906c9.003906-13.269531 15.160156-28.265625 18.078125-44.253906.511718-2.800781.917968-5.609375 1.226562-8.421875 43.890625 1.539063 72.5 13.789063 81.773438 25.9375 1.929687 2.527344 4.894531 3.933594 7.949218 3.933594 1.070313 0 2.152344-.171875 3.203126-.527344 4.0625-1.371094 6.796874-5.183594 6.796874-9.472656v-206.320313h20.523438zm0 0" fill="#09357b" data-original="#000000" style="" class=""/><path d="m50.523438 175.628906c5.507812 0 10-4.492187 10-10 0-5.507812-4.492188-10-10-10-5.507813 0-10 4.492188-10 10 0 5.507813 4.492187 10 10 10zm0 0" fill="#09357b" data-original="#000000" style="" class=""/><path d="m331.257812 193.488281c5.507813 0 10-4.492187 10-10 0-5.507812-4.492187-10-10-10-5.507812 0-10 4.492188-10 10 0 5.507813 4.492188 10 10 10zm0 0" fill="#09357b" data-original="#000000" style="" class=""/></g></g></svg>
